# xmcd CD database file
#
# Track frame offsets:
#	182
#	16397
#	35487
#	47142
#	67310
#	81962
#	97380
#	124175
#	137230
#	156370
#	175432
#	193547
#	211542
#	226550
#
# Disc length: 3353 seconds
#
# Revision: 5
# Processed by: cddbd v1.5.2PL0 Copyright (c) Steve Scherf et al.
# Submitted via: CDex 1.70beta2
#
DISCID=c70d170e
DTITLE=Free - All Right Now (The Best Of Free)
DYEAR=1991
DGENRE=Rock
TTITLE0=Wishing Well
TTITLE1=All Right Now
TTITLE2=Little Bit Of love
TTITLE3=Come Together In The Morning
TTITLE4=The Stealer
TTITLE5=Sail On
TTITLE6=Mr. Big
TTITLE7=My Brother Jake
TTITLE8=The Hunter
TTITLE9=Be My Friend
TTITLE10=Travellin' In Style
TTITLE11=Fire And Water
TTITLE12=Travelling Man
TTITLE13=Don't Say You Love Me
EXTD=YEAR: 1991
EXTT0=
EXTT1=
EXTT2=
EXTT3=
EXTT4=
EXTT5=
EXTT6=
EXTT7=
EXTT8=
EXTT9=
EXTT10=
EXTT11=
EXTT12=
EXTT13=
PLAYORDER=
